<?xml version="1.0" encoding="UTF-8"?>
<svg id="Layer_1" data-name="Layer 1" xmlns="http://www.w3.org/2000/svg" viewBox="0 0 1024 1024">
  <defs>
    <style>
      .cls-1 {
        fill: #f26522;
      }

      .cls-2 {
        fill: #231f20;
      }

      .cls-3 {
        fill: #414042;
      }
    </style>
  </defs>
  <g>
    <path class="cls-3" d="m398.35,260.03h-112.63v215.18h112.63c42.58,0,73.97-9.25,94.14-27.74,20.17-18.49,30.26-44.83,30.26-79.01,0-72.29-41.48-108.43-124.4-108.43Z"/>
    <path class="cls-1" d="m553.1,487.75l65.29,137.22,78.22-78.61-137.71-64.69c-1.87,2.06-3.81,4.09-5.8,6.09Z"/>
    <path class="cls-3" d="m744.51,432.37c.36-1.69.51-2.53.72-3.35,13.7-53.66,14.58-107.63,1.59-161.37C700.77,77.24,506.39-33.18,319.41,24.38,181.32,66.9,84.22,197.26,83.95,341.54c-.32,169.29-.08,338.58-.07,507.87,0,2.06.22,4.12.34,6.13h344.49v-172.59c28.8-4.47,56.6-8.78,84.99-13.18,16.9,63.03,34.12,127.26,51.08,190.51,125.16-125.16,250.31-250.32,375.44-375.45-64.46-17.28-129.79-34.8-195.7-52.47Zm-16.74,128.85l-94.36,94.83,30.97,65.58-29.8,29.95-112.76-240.06c-31.47,17.83-72.63,26.74-123.47,26.74h-112.63v244.6h-76.49V196.99h189.12c66.11,0,116.42,15.97,150.88,47.91,34.46,31.94,51.69,73.13,51.69,123.56,0,30.2-6.41,57.22-19.2,81.07l241.57,112.38-29.8,29.95-65.73-30.64Z"/>
  </g>
  <g>
    <path class="cls-2" d="m90.04,943.72c-3.02,5.31-7.48,9.52-13.37,12.64-5.89,3.12-13.03,4.67-21.4,4.67h-12.86v32.87H9.98v-103.44h45.29c12.66,0,22.38,3.21,29.15,9.64,6.77,6.43,10.15,15.05,10.15,25.86,0,6.53-1.51,12.44-4.53,17.75Zm-28.34-17.75c0-6.33-3.36-9.5-10.08-9.5h-9.2v18.99h9.2c6.72,0,10.08-3.16,10.08-9.5Z"/>
    <path class="cls-2" d="m204.14,890.47l-37.11,72.03v31.41h-32.43v-31.41l-37.11-72.03h37.11l16.51,36.67,16.51-36.67h36.52Z"/>
    <path class="cls-1" d="m277.77,978.27h-34.48l-5.11,15.63h-34.04l37.84-103.44h37.4l37.69,103.44h-34.19l-5.11-15.63Zm-7.89-24.4l-9.35-28.78-9.35,28.78h18.7Z"/>
    <path class="cls-2" d="m334.24,986.23c-8.04-5.79-12.4-14.29-13.08-25.49h34.48c.49,5.94,3.12,8.91,7.89,8.91,1.75,0,3.24-.41,4.46-1.24,1.22-.83,1.83-2.12,1.83-3.87,0-2.43-1.31-4.4-3.94-5.92-2.63-1.51-6.72-3.24-12.27-5.19-6.62-2.34-12.1-4.63-16.44-6.87-4.34-2.24-8.06-5.5-11.18-9.79-3.12-4.29-4.63-9.79-4.53-16.51,0-6.72,1.73-12.44,5.19-17.17,3.46-4.72,8.18-8.3,14.17-10.74,5.99-2.43,12.73-3.65,20.23-3.65,12.66,0,22.72,2.92,30.17,8.77,7.45,5.84,11.37,14.08,11.76,24.69h-34.92c-.1-2.92-.83-5.01-2.19-6.28-1.37-1.26-3.02-1.9-4.97-1.9-1.36,0-2.48.46-3.36,1.39-.88.93-1.31,2.22-1.31,3.87,0,2.34,1.29,4.26,3.87,5.77,2.58,1.51,6.7,3.34,12.35,5.48,6.52,2.44,11.91,4.77,16.14,7.01,4.24,2.24,7.91,5.36,11.03,9.35,3.12,3.99,4.67,9.01,4.67,15.05,0,6.33-1.56,12.01-4.67,17.02-3.12,5.02-7.65,8.94-13.59,11.76-5.94,2.83-13,4.24-21.18,4.24-12.37,0-22.57-2.9-30.61-8.69Z"/>
    <path class="cls-2" d="m496.91,890.47v25.71h-27.47v77.72h-32.43v-77.72h-27.17v-25.71h87.07Z"/>
    <path class="cls-2" d="m557.69,993.9l-19.43-37.11h-.15v37.11h-32.43v-103.44h48.21c8.38,0,15.53,1.49,21.48,4.46,5.94,2.97,10.39,7.01,13.37,12.13,2.97,5.11,4.46,10.88,4.46,17.31,0,6.92-1.92,13.05-5.77,18.41-3.85,5.36-9.38,9.2-16.58,11.54l22.5,39.59h-35.65Zm-19.58-58.73h12.86c3.12,0,5.45-.71,7.01-2.12,1.56-1.41,2.34-3.63,2.34-6.65,0-2.73-.8-4.87-2.41-6.43-1.61-1.56-3.92-2.34-6.94-2.34h-12.86v17.53Z"/>
    <path class="cls-2" d="m669.89,978.27h-34.48l-5.11,15.63h-34.04l37.84-103.44h37.4l37.69,103.44h-34.19l-5.11-15.63Zm-7.89-24.4l-9.35-28.78-9.35,28.78h18.7Z"/>
    <path class="cls-2" d="m797.73,890.47v25.71h-27.47v77.72h-32.43v-77.72h-27.17v-25.71h87.07Z"/>
    <path class="cls-2" d="m830.09,988.06c-8.13-4.58-14.59-10.91-19.36-18.99-4.77-8.08-7.16-17.19-7.16-27.32s2.39-19.23,7.16-27.32c4.77-8.08,11.22-14.39,19.36-18.92,8.13-4.53,17.07-6.79,26.81-6.79s18.65,2.26,26.74,6.79c8.08,4.53,14.49,10.84,19.21,18.92,4.72,8.09,7.09,17.19,7.09,27.32s-2.36,19.24-7.09,27.32c-4.73,8.09-11.15,14.41-19.28,18.99-8.13,4.58-17.02,6.87-26.66,6.87s-18.68-2.29-26.81-6.87Zm41.71-29.58c3.51-4.14,5.26-9.72,5.26-16.73s-1.75-12.73-5.26-16.87c-3.51-4.14-8.47-6.21-14.9-6.21s-11.54,2.07-15.05,6.21c-3.51,4.14-5.26,9.77-5.26,16.87s1.75,12.59,5.26,16.73c3.51,4.14,8.52,6.21,15.05,6.21s11.4-2.07,14.9-6.21Z"/>
    <path class="cls-2" d="m973.63,993.9l-19.43-37.11h-.15v37.11h-32.43v-103.44h48.21c8.38,0,15.53,1.49,21.48,4.46,5.94,2.97,10.4,7.01,13.37,12.13,2.97,5.11,4.46,10.88,4.46,17.31,0,6.92-1.92,13.05-5.77,18.41-3.85,5.36-9.37,9.2-16.58,11.54l22.5,39.59h-35.65Zm-19.58-58.73h12.86c3.12,0,5.45-.71,7.01-2.12,1.56-1.41,2.34-3.63,2.34-6.65,0-2.73-.8-4.87-2.41-6.43-1.61-1.56-3.92-2.34-6.94-2.34h-12.86v17.53Z"/>
  </g>
</svg>