<?xml version="1.0" encoding="UTF-8"?>
<svg id="Layer_1" data-name="Layer 1" xmlns="http://www.w3.org/2000/svg" xmlns:xlink="http://www.w3.org/1999/xlink" viewBox="0 0 2406.38 362.5">
  <defs>
    <style>
      .cls-1 {
        fill: #f26522;
      }

      .cls-2 {
        filter: url(#drop-shadow-3);
      }

      .cls-3 {
        filter: url(#drop-shadow-2);
      }

      .cls-4 {
        fill: #414042;
      }
    </style>
    <filter id="drop-shadow-2" filterUnits="userSpaceOnUse">
      <feOffset dx="5" dy="5"/>
      <feGaussianBlur result="blur" stdDeviation="5"/>
      <feFlood flood-color="#231f20" flood-opacity=".75"/>
      <feComposite in2="blur" operator="in"/>
      <feComposite in="SourceGraphic"/>
    </filter>
    <filter id="drop-shadow-3" filterUnits="userSpaceOnUse">
      <feOffset dx="5" dy="5"/>
      <feGaussianBlur result="blur-2" stdDeviation="5"/>
      <feFlood flood-color="#231f20" flood-opacity=".75"/>
      <feComposite in2="blur-2" operator="in"/>
      <feComposite in="SourceGraphic"/>
    </filter>
  </defs>
  <g class="cls-3">
    <path class="cls-4" d="m169.96,110.18h-45.84v87.58h45.84c17.33,0,30.11-3.76,38.32-11.29,8.21-7.53,12.32-18.24,12.32-32.16,0-29.42-16.88-44.13-50.63-44.13Z"/>
    <path class="cls-1" d="m232.94,202.87l26.58,55.85,31.84-32-56.05-26.33c-.76.84-1.55,1.66-2.36,2.48Z"/>
    <path class="cls-4" d="m310.85,180.32c.15-.69.21-1.03.29-1.36,5.58-21.84,5.94-43.81.65-65.68C293.05,35.78,213.93-9.16,137.83,14.27,81.62,31.57,42.1,84.63,41.99,143.36c-.13,68.9-.03,137.81-.03,206.71,0,.84.09,1.68.14,2.49h140.21v-70.25c11.72-1.82,23.04-3.57,34.59-5.36,6.88,25.65,13.89,51.8,20.79,77.54,50.94-50.94,101.88-101.88,152.81-152.81-26.24-7.03-52.83-14.16-79.65-21.35Zm-6.81,52.44l-38.41,38.6,12.6,26.69-12.13,12.19-45.89-97.71c-12.81,7.26-29.56,10.88-50.25,10.88h-45.84v99.56h-31.13V84.52h76.98c26.91,0,47.38,6.5,61.41,19.5,14.03,13,21.04,29.76,21.04,50.29,0,12.29-2.61,23.29-7.81,33l98.32,45.74-12.13,12.19-26.75-12.47Z"/>
  </g>
  <g class="cls-2">
    <path class="cls-4" d="m636.19,190.52c-5.73,10.08-14.19,18.08-25.38,23.99-11.19,5.92-24.73,8.87-40.63,8.87h-24.41v62.4h-61.57V89.43h85.98c24.03,0,42.48,6.1,55.33,18.3,12.85,12.2,19.28,28.57,19.28,49.09,0,12.39-2.87,23.62-8.6,33.7Zm-53.8-33.7c0-12.02-6.38-18.03-19.14-18.03h-17.47v36.06h17.47c12.76,0,19.14-6.01,19.14-18.03Z"/>
    <path class="cls-4" d="m852.79,89.43l-70.45,136.73v59.63h-61.57v-59.63l-70.45-136.73h70.45l31.34,69.61,31.34-69.61h69.34Z"/>
    <path class="cls-1" d="m992.57,256.11h-65.45l-9.71,29.68h-64.62l71.83-196.36h71l71.55,196.36h-64.9l-9.71-29.68Zm-14.98-46.32l-17.75-54.64-17.75,54.64h35.5Z"/>
    <path class="cls-4" d="m1099.76,271.23c-15.25-11-23.53-27.13-24.82-48.4h65.45c.92,11.28,5.92,16.92,14.98,16.92,3.33,0,6.14-.78,8.46-2.36,2.31-1.57,3.47-4.02,3.47-7.35,0-4.62-2.5-8.36-7.49-11.23-4.99-2.86-12.76-6.14-23.3-9.84-12.58-4.44-22.98-8.78-31.2-13.04-8.23-4.25-15.3-10.44-21.22-18.58-5.92-8.13-8.78-18.58-8.6-31.34,0-12.76,3.28-23.62,9.85-32.59,6.56-8.97,15.53-15.76,26.9-20.39,11.37-4.62,24.17-6.93,38.41-6.93,24.03,0,43.13,5.55,57.27,16.64,14.14,11.09,21.58,26.72,22.33,46.87h-66.28c-.19-5.55-1.57-9.52-4.16-11.93-2.59-2.4-5.73-3.61-9.43-3.61-2.59,0-4.71.88-6.38,2.63-1.66,1.76-2.5,4.21-2.5,7.35,0,4.44,2.45,8.09,7.35,10.95,4.9,2.87,12.71,6.34,23.44,10.4,12.38,4.62,22.6,9.06,30.65,13.31,8.04,4.25,15.02,10.17,20.94,17.75,5.91,7.58,8.87,17.11,8.87,28.57,0,12.02-2.96,22.79-8.87,32.31-5.92,9.53-14.52,16.97-25.79,22.33-11.28,5.37-24.68,8.04-40.22,8.04-23.48,0-42.85-5.5-58.1-16.5Z"/>
    <path class="cls-4" d="m1408.58,89.43v48.81h-52.14v147.55h-61.57v-147.55h-51.59v-48.81h165.3Z"/>
    <path class="cls-4" d="m1523.96,285.79l-36.89-70.44h-.28v70.44h-61.57V89.43h91.52c15.9,0,29.49,2.82,40.77,8.46,11.28,5.64,19.73,13.31,25.38,23.02,5.64,9.71,8.46,20.66,8.46,32.87,0,13.13-3.65,24.78-10.95,34.95-7.31,10.17-17.8,17.47-31.48,21.91l42.71,75.16h-67.67Zm-37.17-111.49h24.41c5.91,0,10.35-1.34,13.31-4.02,2.96-2.68,4.44-6.89,4.44-12.62,0-5.18-1.53-9.24-4.58-12.2-3.05-2.96-7.44-4.44-13.17-4.44h-24.41v33.28Z"/>
    <path class="cls-4" d="m1736.96,256.11h-65.45l-9.71,29.68h-64.62l71.83-196.36h71l71.55,196.36h-64.9l-9.71-29.68Zm-14.98-46.32l-17.75-54.64-17.75,54.64h35.5Z"/>
    <path class="cls-4" d="m1979.63,89.43v48.81h-52.14v147.55h-61.57v-147.55h-51.59v-48.81h165.29Z"/>
    <path class="cls-4" d="m2041.06,274.69c-15.44-8.69-27.69-20.7-36.75-36.05-9.06-15.35-13.59-32.63-13.59-51.86s4.53-36.51,13.59-51.86c9.06-15.35,21.31-27.32,36.75-35.92,15.43-8.6,32.4-12.9,50.89-12.9s35.41,4.3,50.75,12.9c15.34,8.6,27.5,20.57,36.47,35.92,8.97,15.35,13.45,32.64,13.45,51.86s-4.49,36.52-13.45,51.86c-8.97,15.35-21.17,27.36-36.61,36.05-15.44,8.69-32.31,13.04-50.61,13.04s-35.46-4.34-50.89-13.04Zm79.18-56.16c6.66-7.86,9.98-18.44,9.98-31.76s-3.33-24.17-9.98-32.03c-6.66-7.86-16.09-11.79-28.29-11.79s-21.91,3.93-28.57,11.79c-6.66,7.86-9.98,18.54-9.98,32.03s3.33,23.9,9.98,31.76c6.66,7.86,16.18,11.79,28.57,11.79s21.63-3.93,28.29-11.79Z"/>
    <path class="cls-4" d="m2313.55,285.79l-36.89-70.44h-.28v70.44h-61.57V89.43h91.52c15.9,0,29.49,2.82,40.77,8.46,11.28,5.64,19.74,13.31,25.38,23.02,5.64,9.71,8.46,20.66,8.46,32.87,0,13.13-3.65,24.78-10.95,34.95-7.31,10.17-17.8,17.47-31.48,21.91l42.71,75.16h-67.67Zm-37.17-111.49h24.41c5.91,0,10.35-1.34,13.31-4.02,2.96-2.68,4.44-6.89,4.44-12.62,0-5.18-1.53-9.24-4.58-12.2-3.05-2.96-7.45-4.44-13.17-4.44h-24.41v33.28Z"/>
  </g>
</svg>