<?xml version="1.0" encoding="UTF-8"?>
<svg id="Layer_1" data-name="Layer 1" xmlns="http://www.w3.org/2000/svg" xmlns:xlink="http://www.w3.org/1999/xlink" viewBox="0 0 1024 1024">
  <defs>
    <style>
      .cls-1 {
        fill: #f26522;
      }

      .cls-2 {
        filter: url(#drop-shadow-1);
      }

      .cls-3 {
        fill: #414042;
      }
    </style>
    <filter id="drop-shadow-1" filterUnits="userSpaceOnUse">
      <feOffset dx="7" dy="7"/>
      <feGaussianBlur result="blur" stdDeviation="5"/>
      <feFlood flood-color="#231f20" flood-opacity=".75"/>
      <feComposite in2="blur" operator="in"/>
      <feComposite in="SourceGraphic"/>
    </filter>
  </defs>
  <g class="cls-2">
    <g>
      <path class="cls-3" d="m409.58,289.27h-103.67v198.05h103.67c39.19,0,68.08-8.51,86.65-25.53,18.57-17.02,27.85-41.26,27.85-72.72,0-66.53-38.18-99.8-114.5-99.8Z"/>
      <path class="cls-1" d="m552.02,498.87l60.1,126.3,72-72.35-126.75-59.54c-1.72,1.9-3.5,3.76-5.34,5.6Z"/>
      <path class="cls-3" d="m728.19,447.89c.33-1.55.47-2.33.66-3.08,12.61-49.39,13.42-99.06,1.46-148.53C687.93,121.03,509.02,19.39,336.92,72.38c-127.1,39.13-216.46,159.12-216.71,291.92-.29,155.82-.08,311.64-.06,467.45,0,1.9.2,3.79.31,5.64h317.07v-158.86c26.51-4.11,52.1-8.08,78.23-12.13,15.55,58.01,31.4,117.13,47.01,175.35,115.2-115.2,230.39-230.4,345.56-345.57-59.33-15.91-119.46-32.03-180.13-48.29Zm-15.41,118.6l-86.85,87.28,28.5,60.36-27.43,27.56-103.78-220.96c-28.97,16.41-66.85,24.61-113.64,24.61h-103.67v225.13h-70.4V231.25h174.07c60.85,0,107.15,14.7,138.87,44.1,31.72,29.4,47.58,67.31,47.58,113.73,0,27.79-5.9,52.66-17.67,74.62l222.35,103.43-27.43,27.56-60.5-28.2Z"/>
    </g>
    <g>
      <path class="cls-3" d="m125.8,918.55c-2.78,4.89-6.88,8.76-12.3,11.63-5.43,2.87-11.99,4.3-19.7,4.3h-11.83v30.26h-29.85v-95.2h41.69c11.65,0,20.59,2.96,26.83,8.87,6.23,5.92,9.35,13.85,9.35,23.8,0,6.01-1.39,11.45-4.17,16.34Zm-26.09-16.34c0-5.83-3.09-8.74-9.28-8.74h-8.47v17.48h8.47c6.19,0,9.28-2.91,9.28-8.74Z"/>
      <path class="cls-3" d="m230.82,869.53l-34.16,66.29v28.91h-29.85v-28.91l-34.16-66.29h34.16l15.2,33.75,15.19-33.75h33.62Z"/>
      <path class="cls-1" d="m298.6,950.35h-31.73l-4.71,14.39h-31.33l34.83-95.2h34.42l34.69,95.2h-31.47l-4.71-14.39Zm-7.26-22.46l-8.61-26.49-8.61,26.49h17.21Z"/>
      <path class="cls-3" d="m350.57,957.68c-7.4-5.33-11.41-13.16-12.04-23.47h31.73c.45,5.47,2.87,8.2,7.26,8.2,1.61,0,2.98-.38,4.1-1.14,1.12-.76,1.68-1.95,1.68-3.56,0-2.24-1.21-4.05-3.63-5.45-2.42-1.39-6.19-2.98-11.3-4.77-6.1-2.15-11.14-4.26-15.13-6.32-3.99-2.06-7.42-5.06-10.29-9.01-2.87-3.94-4.26-9.01-4.17-15.2,0-6.19,1.59-11.45,4.77-15.8,3.18-4.35,7.53-7.64,13.04-9.88,5.51-2.24,11.72-3.36,18.62-3.36,11.65,0,20.91,2.69,27.77,8.07,6.86,5.38,10.47,12.96,10.82,22.73h-32.14c-.09-2.69-.76-4.62-2.02-5.78-1.26-1.16-2.78-1.75-4.57-1.75-1.26,0-2.29.43-3.09,1.28-.81.85-1.21,2.04-1.21,3.56,0,2.15,1.19,3.92,3.56,5.31,2.37,1.39,6.16,3.07,11.36,5.04,6,2.24,10.96,4.39,14.86,6.45,3.9,2.06,7.28,4.93,10.15,8.61,2.87,3.68,4.3,8.29,4.3,13.85,0,5.83-1.43,11.05-4.3,15.67-2.87,4.62-7.04,8.23-12.51,10.82-5.47,2.6-11.97,3.9-19.5,3.9-11.39,0-20.78-2.67-28.17-8Z"/>
      <path class="cls-3" d="m500.3,869.53v23.67h-25.28v71.54h-29.85v-71.54h-25.01v-23.67h80.14Z"/>
      <path class="cls-3" d="m556.24,964.74l-17.89-34.15h-.13v34.15h-29.85v-95.2h44.37c7.71,0,14.3,1.37,19.77,4.1,5.47,2.74,9.57,6.45,12.3,11.16,2.73,4.71,4.1,10.02,4.1,15.94,0,6.37-1.77,12.01-5.31,16.94-3.54,4.93-8.63,8.47-15.26,10.62l20.71,36.44h-32.81Zm-18.02-54.06h11.83c2.87,0,5.02-.65,6.45-1.95,1.43-1.3,2.15-3.34,2.15-6.12,0-2.51-.74-4.48-2.22-5.92-1.48-1.43-3.61-2.15-6.39-2.15h-11.83v16.14Z"/>
      <path class="cls-3" d="m659.51,950.35h-31.73l-4.71,14.39h-31.33l34.83-95.2h34.42l34.69,95.2h-31.47l-4.71-14.39Zm-7.26-22.46l-8.61-26.49-8.61,26.49h17.21Z"/>
      <path class="cls-3" d="m777.17,869.53v23.67h-25.28v71.54h-29.85v-71.54h-25.01v-23.67h80.14Z"/>
      <path class="cls-3" d="m806.96,959.36c-7.49-4.21-13.43-10.04-17.82-17.48-4.39-7.44-6.59-15.82-6.59-25.15s2.2-17.7,6.59-25.15c4.39-7.44,10.33-13.25,17.82-17.41,7.48-4.17,15.71-6.25,24.68-6.25s17.17,2.08,24.61,6.25c7.44,4.17,13.33,9.97,17.68,17.41,4.35,7.44,6.52,15.82,6.52,25.15s-2.18,17.71-6.52,25.15c-4.35,7.44-10.27,13.27-17.75,17.48-7.49,4.21-15.67,6.32-24.54,6.32s-17.19-2.11-24.68-6.32Zm38.39-27.23c3.23-3.81,4.84-8.94,4.84-15.4s-1.61-11.72-4.84-15.53c-3.23-3.81-7.8-5.72-13.72-5.72s-10.62,1.91-13.85,5.72c-3.23,3.81-4.84,8.99-4.84,15.53s1.61,11.59,4.84,15.4c3.23,3.81,7.84,5.72,13.85,5.72s10.49-1.9,13.72-5.72Z"/>
      <path class="cls-3" d="m939.07,964.74l-17.88-34.15h-.14v34.15h-29.85v-95.2h44.37c7.71,0,14.3,1.37,19.77,4.1,5.47,2.74,9.57,6.45,12.3,11.16,2.73,4.71,4.1,10.02,4.1,15.94,0,6.37-1.77,12.01-5.31,16.94-3.54,4.93-8.63,8.47-15.26,10.62l20.71,36.44h-32.81Zm-18.02-54.06h11.83c2.87,0,5.02-.65,6.45-1.95,1.43-1.3,2.15-3.34,2.15-6.12,0-2.51-.74-4.48-2.22-5.92-1.48-1.43-3.61-2.15-6.39-2.15h-11.83v16.14Z"/>
    </g>
  </g>
</svg>